<svg width="1200" height="630" viewBox="0 0 1200 630" fill="none" xmlns="http://www.w3.org/2000/svg" role="img" aria-labelledby="title desc">
  <title id="title">AIForj emotional first aid</title>
  <desc id="desc">AIForj brand preview with a warm futuristic mark and emotional first aid message.</desc>
  <defs>
    <linearGradient id="ogBg" x1="0" y1="0" x2="1200" y2="630" gradientUnits="userSpaceOnUse">
      <stop stop-color="#151715"/>
      <stop offset="0.42" stop-color="#2F2A23"/>
      <stop offset="1" stop-color="#243A3F"/>
    </linearGradient>
    <radialGradient id="ogGlowA" cx="0" cy="0" r="1" gradientUnits="userSpaceOnUse" gradientTransform="translate(316 152) rotate(45) scale(454 302)">
      <stop stop-color="#F2C46B" stop-opacity="0.32"/>
      <stop offset="1" stop-color="#F2C46B" stop-opacity="0"/>
    </radialGradient>
    <radialGradient id="ogGlowB" cx="0" cy="0" r="1" gradientUnits="userSpaceOnUse" gradientTransform="translate(925 436) rotate(144) scale(390 292)">
      <stop stop-color="#70B7C7" stop-opacity="0.34"/>
      <stop offset="1" stop-color="#70B7C7" stop-opacity="0"/>
    </radialGradient>
    <linearGradient id="markBg" x1="70" y1="54" x2="438" y2="456" gradientUnits="userSpaceOnUse">
      <stop stop-color="#FFF4DF"/>
      <stop offset="0.46" stop-color="#E3EFD7"/>
      <stop offset="1" stop-color="#BFE7F3"/>
    </linearGradient>
    <linearGradient id="markFlame" x1="190" y1="112" x2="330" y2="410" gradientUnits="userSpaceOnUse">
      <stop stop-color="#F2C46B"/>
      <stop offset="0.52" stop-color="#DF9463"/>
      <stop offset="1" stop-color="#6EAA86"/>
    </linearGradient>
    <linearGradient id="markOrbit" x1="105" y1="122" x2="406" y2="358" gradientUnits="userSpaceOnUse">
      <stop stop-color="#80B98F"/>
      <stop offset="0.52" stop-color="#70B7C7"/>
      <stop offset="1" stop-color="#B9A7F0"/>
    </linearGradient>
  </defs>
  <rect width="1200" height="630" fill="url(#ogBg)"/>
  <rect width="1200" height="630" fill="url(#ogGlowA)"/>
  <rect width="1200" height="630" fill="url(#ogGlowB)"/>
  <path d="M112 505C219 403 311 348 458 338C574 330 651 278 736 198C814 125 899 84 1056 96" stroke="#C8E9F0" stroke-opacity="0.18" stroke-width="22" stroke-linecap="round"/>
  <path d="M144 140C254 230 354 270 510 250C631 235 711 263 804 333C895 401 974 424 1064 412" stroke="#F2C46B" stroke-opacity="0.14" stroke-width="18" stroke-linecap="round"/>
  <rect x="76" y="72" width="1048" height="486" rx="58" fill="#FFF8EA" fill-opacity="0.07" stroke="#FFF8EA" stroke-opacity="0.12"/>
  <g transform="translate(120 147) scale(0.34765625)">
    <rect x="22" y="22" width="468" height="468" rx="124" fill="url(#markBg)"/>
    <rect x="45" y="45" width="422" height="422" rx="106" stroke="#FFFFFF" stroke-opacity="0.74" stroke-width="16"/>
    <path d="M106 342C158 220 260 132 401 114" stroke="url(#markOrbit)" stroke-width="28" stroke-linecap="round"/>
    <circle cx="394" cy="117" r="24" fill="#24453F"/>
    <circle cx="394" cy="117" r="10" fill="#BDEFE8"/>
    <path d="M256 82C203 145 174 201 174 262C174 343 235 403 256 420C277 403 338 343 338 262C338 201 309 145 256 82Z" fill="url(#markFlame)" stroke="#24453F" stroke-width="18" stroke-linejoin="round"/>
    <path d="M256 163C227 202 215 234 215 268C215 318 244 350 256 362C268 350 297 318 297 268C297 234 285 202 256 163Z" fill="#FFF9EC" fill-opacity="0.94"/>
    <path d="M186 247H326" stroke="#24453F" stroke-width="24" stroke-linecap="round"/>
    <path d="M186 334C225 318 247 290 256 248C265 290 287 318 326 334" stroke="#24453F" stroke-width="22" stroke-linecap="round" stroke-linejoin="round"/>
    <path d="M158 370C225 360 292 318 358 228" stroke="url(#markOrbit)" stroke-width="16" stroke-linecap="round" stroke-opacity="0.68"/>
  </g>
  <text x="342" y="218" fill="#FFF8EA" font-family="Georgia, 'Times New Roman', serif" font-size="84" font-weight="700">AIForj</text>
  <text x="346" y="275" fill="#BFDCC5" font-family="Arial, Helvetica, sans-serif" font-size="28" font-weight="700" letter-spacing="5">EMOTIONAL FIRST AID</text>
  <text x="120" y="386" fill="#FFF8EA" font-family="Georgia, 'Times New Roman', serif" font-size="46" font-weight="700">Emotional first aid for the moment</text>
  <text x="120" y="438" fill="#FFF8EA" font-family="Georgia, 'Times New Roman', serif" font-size="46" font-weight="700">before it gets worse.</text>
  <text x="122" y="500" fill="#D9CEC3" font-family="Arial, Helvetica, sans-serif" font-size="25">Clinician-informed. Evidence-framed. Wellness companion, not therapy.</text>
  <circle cx="1040" cy="164" r="7" fill="#F2C46B"/>
  <circle cx="1012" cy="193" r="5" fill="#BDEFE8"/>
  <circle cx="1078" cy="218" r="4" fill="#B9A7F0"/>
</svg>
