<svg width="512" height="512" viewBox="0 0 512 512" fill="none" xmlns="http://www.w3.org/2000/svg" role="img" aria-labelledby="title desc">
  <title id="title">AIForj mark</title>
  <desc id="desc">A warm compact AIForj mark with a calm forge flame, leaf form, and a cool orbital line.</desc>
  <defs>
    <linearGradient id="bg" x1="70" y1="54" x2="438" y2="456" gradientUnits="userSpaceOnUse">
      <stop stop-color="#FFF4DF"/>
      <stop offset="0.46" stop-color="#E3EFD7"/>
      <stop offset="1" stop-color="#BFE7F3"/>
    </linearGradient>
    <linearGradient id="flame" x1="190" y1="112" x2="330" y2="410" gradientUnits="userSpaceOnUse">
      <stop stop-color="#F2C46B"/>
      <stop offset="0.52" stop-color="#DF9463"/>
      <stop offset="1" stop-color="#6EAA86"/>
    </linearGradient>
    <linearGradient id="orbit" x1="105" y1="122" x2="406" y2="358" gradientUnits="userSpaceOnUse">
      <stop stop-color="#80B98F"/>
      <stop offset="0.52" stop-color="#70B7C7"/>
      <stop offset="1" stop-color="#B9A7F0"/>
    </linearGradient>
    <filter id="softShadow" x="24" y="26" width="464" height="464" filterUnits="userSpaceOnUse" color-interpolation-filters="sRGB">
      <feDropShadow dx="0" dy="20" stdDeviation="30" flood-color="#22352F" flood-opacity="0.18"/>
      <feDropShadow dx="0" dy="2" stdDeviation="7" flood-color="#FFFFFF" flood-opacity="0.62"/>
    </filter>
  </defs>
  <rect x="22" y="22" width="468" height="468" rx="124" fill="url(#bg)" filter="url(#softShadow)"/>
  <rect x="45" y="45" width="422" height="422" rx="106" stroke="#FFFFFF" stroke-opacity="0.74" stroke-width="16"/>
  <path d="M106 342C158 220 260 132 401 114" stroke="url(#orbit)" stroke-width="28" stroke-linecap="round"/>
  <circle cx="394" cy="117" r="24" fill="#24453F"/>
  <circle cx="394" cy="117" r="10" fill="#BDEFE8"/>
  <path d="M256 82C203 145 174 201 174 262C174 343 235 403 256 420C277 403 338 343 338 262C338 201 309 145 256 82Z" fill="url(#flame)" stroke="#24453F" stroke-width="18" stroke-linejoin="round"/>
  <path d="M256 163C227 202 215 234 215 268C215 318 244 350 256 362C268 350 297 318 297 268C297 234 285 202 256 163Z" fill="#FFF9EC" fill-opacity="0.94"/>
  <path d="M186 247H326" stroke="#24453F" stroke-width="24" stroke-linecap="round"/>
  <path d="M186 334C225 318 247 290 256 248C265 290 287 318 326 334" stroke="#24453F" stroke-width="22" stroke-linecap="round" stroke-linejoin="round"/>
  <path d="M158 370C225 360 292 318 358 228" stroke="url(#orbit)" stroke-width="16" stroke-linecap="round" stroke-opacity="0.68"/>
</svg>
